<svg xmlns="http://www.w3.org/2000/svg" xmlns:xlink="http://www.w3.org/1999/xlink" width="340" zoomAndPan="magnify" viewBox="315 190 340 150" height="150" preserveAspectRatio="xMidYMid meet" version="1.0"><defs><filter x="0%" y="0%" width="100%" height="100%" id="218aebb64d"><feColorMatrix values="0 0 0 0 1 0 0 0 0 1 0 0 0 0 1 0 0 0 1 0" color-interpolation-filters="sRGB"/></filter><g/><clipPath id="d830258a05"><path d="M 0 0.140625 L 1024 0.140625 L 1024 575.859375 L 0 575.859375 Z M 0 0.140625 " clip-rule="nonzero"/></clipPath><mask id="75e043455f"><g filter="url(#218aebb64d)"><rect x="-492.39" width="1475.28" fill="#000000" y="-162.72" height="829.44" fill-opacity="0.99"/></g></mask><clipPath id="b267a8ea58"><path d="M 0.496094 0.957031 L 103.175781 0.957031 L 103.175781 103.636719 L 0.496094 103.636719 Z M 0.496094 0.957031 " clip-rule="nonzero"/></clipPath><clipPath id="92b2b15e60"><rect x="0" width="104" y="0" height="105"/></clipPath><mask id="c998482b05"><g filter="url(#218aebb64d)"><rect x="-492.39" width="1475.28" fill="#000000" y="-162.72" height="829.44" fill-opacity="0.99"/></g></mask><clipPath id="8698d49a7a"><path d="M 3 3 L 18 3 L 18 17.476562 L 3 17.476562 Z M 3 3 " clip-rule="nonzero"/></clipPath><clipPath id="e6f06502a7"><path d="M 0.675781 0.914062 L 20.546875 0.914062 L 20.546875 10 L 0.675781 10 Z M 0.675781 0.914062 " clip-rule="nonzero"/></clipPath><clipPath id="441c37db5c"><rect x="0" width="21" y="0" height="21"/></clipPath><clipPath id="934cff7d5f"><path d="M 0.710938 0.601562 L 544.042969 0.601562 L 544.042969 473.410156 L 0.710938 473.410156 Z M 0.710938 0.601562 " clip-rule="nonzero"/></clipPath><clipPath id="4c685df3bf"><path d="M 5.160156 5.066406 L 544.007812 5.066406 L 544.007812 468.824219 L 5.160156 468.824219 Z M 5.160156 5.066406 " clip-rule="nonzero"/></clipPath><clipPath id="69e808e8ef"><path d="M 0.160156 0.0664062 L 539.007812 0.0664062 L 539.007812 463.824219 L 0.160156 463.824219 Z M 0.160156 0.0664062 " clip-rule="nonzero"/></clipPath><clipPath id="fb6ef262a0"><path d="M 0.167969 13.316406 L 539 13.316406 L 539 446.15625 L 0.167969 446.15625 Z M 0.167969 13.316406 " clip-rule="nonzero"/></clipPath><linearGradient x1="21.726999" gradientTransform="matrix(4.428075, 0, 0, 4.40633, 173.377365, 172.454019)" y1="-36.115997" x2="21.726999" gradientUnits="userSpaceOnUse" y2="62.116001" id="21e5016323"><stop stop-opacity="1" stop-color="rgb(69.799805%, 94.509888%, 100%)" offset="0"/><stop stop-opacity="1" stop-color="rgb(69.799805%, 94.509888%, 100%)" offset="0.25"/><stop stop-opacity="1" stop-color="rgb(69.799805%, 94.509888%, 100%)" offset="0.375"/><stop stop-opacity="1" stop-color="rgb(69.799805%, 94.509888%, 100%)" offset="0.390625"/><stop stop-opacity="1" stop-color="rgb(69.75708%, 94.438171%, 99.966431%)" offset="0.398438"/><stop stop-opacity="1" stop-color="rgb(68.315125%, 92.018127%, 98.849487%)" offset="0.402344"/><stop stop-opacity="1" stop-color="rgb(66.915894%, 89.671326%, 97.766113%)" offset="0.40625"/><stop stop-opacity="1" stop-color="rgb(65.515137%, 87.322998%, 96.682739%)" offset="0.410156"/><stop stop-opacity="1" stop-color="rgb(64.115906%, 84.976196%, 95.599365%)" offset="0.414063"/><stop stop-opacity="1" stop-color="rgb(62.716675%, 82.627869%, 94.514465%)" offset="0.417969"/><stop stop-opacity="1" stop-color="rgb(61.317444%, 80.281067%, 93.431091%)" offset="0.421875"/><stop stop-opacity="1" stop-color="rgb(59.918213%, 77.932739%, 92.347717%)" offset="0.425781"/><stop stop-opacity="1" stop-color="rgb(58.518982%, 75.585938%, 91.264343%)" offset="0.429688"/><stop stop-opacity="1" stop-color="rgb(57.119751%, 73.23761%, 90.180969%)" offset="0.433594"/><stop stop-opacity="1" stop-color="rgb(55.72052%, 70.890808%, 89.097595%)" offset="0.4375"/><stop stop-opacity="1" stop-color="rgb(54.319763%, 68.54248%, 88.012695%)" offset="0.441406"/><stop stop-opacity="1" stop-color="rgb(52.920532%, 66.195679%, 86.929321%)" offset="0.445313"/><stop stop-opacity="1" stop-color="rgb(51.521301%, 63.847351%, 85.845947%)" offset="0.449219"/><stop stop-opacity="1" stop-color="rgb(50.12207%, 61.500549%, 84.762573%)" offset="0.453125"/><stop stop-opacity="1" stop-color="rgb(48.722839%, 59.152222%, 83.679199%)" offset="0.457031"/><stop stop-opacity="1" stop-color="rgb(47.323608%, 56.80542%, 82.595825%)" offset="0.460938"/><stop stop-opacity="1" stop-color="rgb(45.924377%, 54.457092%, 81.510925%)" offset="0.464844"/><stop stop-opacity="1" stop-color="rgb(44.525146%, 52.110291%, 80.427551%)" offset="0.46875"/><stop stop-opacity="1" stop-color="rgb(43.12439%, 49.761963%, 79.344177%)" offset="0.472656"/><stop stop-opacity="1" stop-color="rgb(41.725159%, 47.415161%, 78.260803%)" offset="0.476563"/><stop stop-opacity="1" stop-color="rgb(40.325928%, 45.066833%, 77.177429%)" offset="0.480469"/><stop stop-opacity="1" stop-color="rgb(38.926697%, 42.720032%, 76.094055%)" offset="0.484375"/><stop stop-opacity="1" stop-color="rgb(37.527466%, 40.371704%, 75.009155%)" offset="0.488281"/><stop stop-opacity="1" stop-color="rgb(36.128235%, 38.024902%, 73.925781%)" offset="0.492188"/><stop stop-opacity="1" stop-color="rgb(34.729004%, 35.676575%, 72.842407%)" offset="0.496094"/><stop stop-opacity="1" stop-color="rgb(33.329773%, 33.329773%, 71.759033%)" offset="0.5"/><stop stop-opacity="1" stop-color="rgb(32.095337%, 32.290649%, 69.71283%)" offset="0.503906"/><stop stop-opacity="1" stop-color="rgb(30.862427%, 31.253052%, 67.666626%)" offset="0.507813"/><stop stop-opacity="1" stop-color="rgb(29.627991%, 30.213928%, 65.620422%)" offset="0.511719"/><stop stop-opacity="1" stop-color="rgb(28.395081%, 29.176331%, 63.574219%)" offset="0.515625"/><stop stop-opacity="1" stop-color="rgb(27.160645%, 28.137207%, 61.526489%)" offset="0.519531"/><stop stop-opacity="1" stop-color="rgb(25.927734%, 27.099609%, 59.480286%)" offset="0.523438"/><stop stop-opacity="1" stop-color="rgb(24.693298%, 26.060486%, 57.434082%)" offset="0.527344"/><stop stop-opacity="1" stop-color="rgb(23.460388%, 25.022888%, 55.387878%)" offset="0.53125"/><stop stop-opacity="1" stop-color="rgb(22.225952%, 23.983765%, 53.341675%)" offset="0.535156"/><stop stop-opacity="1" stop-color="rgb(20.993042%, 22.946167%, 51.295471%)" offset="0.539063"/><stop stop-opacity="1" stop-color="rgb(19.758606%, 21.907043%, 49.249268%)" offset="0.542969"/><stop stop-opacity="1" stop-color="rgb(18.525696%, 20.869446%, 47.203064%)" offset="0.546875"/><stop stop-opacity="1" stop-color="rgb(17.29126%, 19.830322%, 45.15686%)" offset="0.550781"/><stop stop-opacity="1" stop-color="rgb(16.05835%, 18.792725%, 43.110657%)" offset="0.554688"/><stop stop-opacity="1" stop-color="rgb(14.823914%, 17.753601%, 41.062927%)" offset="0.558594"/><stop stop-opacity="1" stop-color="rgb(13.591003%, 16.716003%, 39.016724%)" offset="0.5625"/><stop stop-opacity="1" stop-color="rgb(12.356567%, 15.67688%, 36.97052%)" offset="0.566406"/><stop stop-opacity="1" stop-color="rgb(11.123657%, 14.639282%, 34.924316%)" offset="0.570313"/><stop stop-opacity="1" stop-color="rgb(9.889221%, 13.600159%, 32.878113%)" offset="0.574219"/><stop stop-opacity="1" stop-color="rgb(8.656311%, 12.562561%, 30.831909%)" offset="0.578125"/><stop stop-opacity="1" stop-color="rgb(7.421875%, 11.523438%, 28.785706%)" offset="0.582031"/><stop stop-opacity="1" stop-color="rgb(6.188965%, 10.48584%, 26.739502%)" offset="0.585938"/><stop stop-opacity="1" stop-color="rgb(4.954529%, 9.446716%, 24.691772%)" offset="0.589844"/><stop stop-opacity="1" stop-color="rgb(3.721619%, 8.409119%, 22.645569%)" offset="0.59375"/><stop stop-opacity="1" stop-color="rgb(2.487183%, 7.369995%, 20.599365%)" offset="0.597656"/><stop stop-opacity="1" stop-color="rgb(1.254272%, 6.332397%, 18.553162%)" offset="0.601563"/><stop stop-opacity="1" stop-color="rgb(1.216125%, 6.300354%, 18.490601%)" offset="0.609375"/><stop stop-opacity="1" stop-color="rgb(1.179504%, 6.269836%, 18.429565%)" offset="0.625"/><stop stop-opacity="1" stop-color="rgb(1.179504%, 6.269836%, 18.429565%)" offset="0.75"/><stop stop-opacity="1" stop-color="rgb(1.179504%, 6.269836%, 18.429565%)" offset="1"/></linearGradient><clipPath id="39d34ebbaf"><rect x="0" width="540" y="0" height="464"/></clipPath><clipPath id="3f76839de4"><path d="M 0.160156 0.0664062 L 539.007812 0.0664062 L 539.007812 463.824219 L 0.160156 463.824219 Z M 0.160156 0.0664062 " clip-rule="nonzero"/></clipPath><clipPath id="a3b73ebf55"><rect x="0" width="540" y="0" height="464"/></clipPath><clipPath id="1284ef013a"><rect x="0" width="540" y="0" height="464"/></clipPath><mask id="dfc8829e22"><g filter="url(#218aebb64d)"><g transform="matrix(1, 0, 0, 1, 0, -0.000000000000056843)"><g clip-path="url(#1284ef013a)"><g clip-path="url(#3f76839de4)"><g transform="matrix(1, 0, 0, 1, 0, -0.000000000000056843)"><g clip-path="url(#a3b73ebf55)"><g fill="#000000" fill-opacity="1"><g transform="translate(172.415169, 247.403372)"><g><path d="M 45.078125 -20.46875 C 45.078125 -17.414062 44.554688 -14.59375 43.515625 -12 C 42.484375 -9.40625 41.070312 -7.160156 39.28125 -5.265625 C 37.5 -3.367188 35.398438 -1.875 32.984375 -0.78125 C 30.566406 0.3125 27.945312 0.859375 25.125 0.859375 C 20.632812 0.859375 16.375 -0.863281 12.34375 -4.3125 L 12.34375 -8.203125 C 14.25 -6.242188 16.164062 -4.757812 18.09375 -3.75 C 20.019531 -2.75 22.363281 -2.25 25.125 -2.25 C 27.257812 -2.25 29.316406 -2.722656 31.296875 -3.671875 C 33.285156 -4.617188 35.039062 -5.910156 36.5625 -7.546875 C 38.09375 -9.191406 39.316406 -11.125 40.234375 -13.34375 C 41.160156 -15.5625 41.625 -17.9375 41.625 -20.46875 C 41.625 -23 41.160156 -25.367188 40.234375 -27.578125 C 39.316406 -29.796875 38.09375 -31.722656 36.5625 -33.359375 C 35.039062 -35.003906 33.285156 -36.300781 31.296875 -37.25 C 29.316406 -38.207031 27.257812 -38.6875 25.125 -38.6875 C 22.644531 -38.6875 20.382812 -38.179688 18.34375 -37.171875 C 16.300781 -36.160156 14.546875 -34.804688 13.078125 -33.109375 C 11.609375 -31.410156 10.472656 -29.484375 9.671875 -27.328125 C 8.867188 -25.171875 8.46875 -22.941406 8.46875 -20.640625 L 8.46875 19.6875 L 5.1875 19.6875 L 5.1875 -20.71875 C 5.1875 -23.65625 5.6875 -26.40625 6.6875 -28.96875 C 7.695312 -31.53125 9.09375 -33.757812 10.875 -35.65625 C 12.664062 -37.5625 14.769531 -39.0625 17.1875 -40.15625 C 19.601562 -41.25 22.25 -41.796875 25.125 -41.796875 C 27.945312 -41.796875 30.566406 -41.25 32.984375 -40.15625 C 35.398438 -39.0625 37.5 -37.5625 39.28125 -35.65625 C 41.070312 -33.757812 42.484375 -31.515625 43.515625 -28.921875 C 44.554688 -26.335938 45.078125 -23.519531 45.078125 -20.46875 Z M 45.078125 -20.46875 "/></g></g></g><g fill="#000000" fill-opacity="1"><g transform="translate(220.417054, 247.403372)"><g><path d="M 7.9375 -60.4375 L 11.21875 -60.4375 L 11.21875 0 L 7.9375 0 Z M 7.9375 -60.4375 "/></g></g></g><g fill="#000000" fill-opacity="1"><g transform="translate(239.58329, 247.403372)"><g><path d="M 13.46875 -11.921875 L 11.390625 -14.671875 L 37.734375 -32.46875 C 36.234375 -34.363281 34.347656 -35.875 32.078125 -37 C 29.804688 -38.125 27.285156 -38.6875 24.515625 -38.6875 C 21.984375 -38.6875 19.640625 -38.207031 17.484375 -37.25 C 15.328125 -36.300781 13.457031 -34.992188 11.875 -33.328125 C 10.289062 -31.660156 9.035156 -29.703125 8.109375 -27.453125 C 7.191406 -25.210938 6.734375 -22.796875 6.734375 -20.203125 C 6.734375 -17.722656 7.191406 -15.390625 8.109375 -13.203125 C 9.035156 -11.015625 10.300781 -9.113281 11.90625 -7.5 C 13.519531 -5.894531 15.40625 -4.617188 17.5625 -3.671875 C 19.726562 -2.722656 22.046875 -2.25 24.515625 -2.25 C 26.929688 -2.25 29.203125 -2.707031 31.328125 -3.625 C 33.460938 -4.550781 35.347656 -5.789062 36.984375 -7.34375 C 38.628906 -8.894531 39.925781 -10.71875 40.875 -12.8125 C 41.832031 -14.914062 42.367188 -17.175781 42.484375 -19.59375 L 45.9375 -19.59375 C 45.820312 -16.664062 45.1875 -13.945312 44.03125 -11.4375 C 42.882812 -8.9375 41.359375 -6.78125 39.453125 -4.96875 C 37.554688 -3.15625 35.382812 -1.726562 32.9375 -0.6875 C 30.488281 0.34375 27.914062 0.859375 25.21875 0.859375 C 21.988281 0.859375 19.035156 0.3125 16.359375 -0.78125 C 13.679688 -1.875 11.363281 -3.367188 9.40625 -5.265625 C 7.445312 -7.160156 5.9375 -9.40625 4.875 -12 C 3.8125 -14.59375 3.28125 -17.382812 3.28125 -20.375 C 3.28125 -23.3125 3.8125 -26.085938 4.875 -28.703125 C 5.9375 -31.328125 7.414062 -33.601562 9.3125 -35.53125 C 11.21875 -37.457031 13.46875 -38.984375 16.0625 -40.109375 C 18.65625 -41.234375 21.472656 -41.796875 24.515625 -41.796875 C 28.492188 -41.796875 32.066406 -40.875 35.234375 -39.03125 C 38.398438 -37.1875 40.898438 -34.769531 42.734375 -31.78125 Z M 13.46875 -11.921875 "/></g></g></g><g fill="#000000" fill-opacity="1"><g transform="translate(287.585175, 247.403372)"><g><path d="M 37.984375 0 L 34.703125 0 L 34.703125 -24.78125 C 34.703125 -26.675781 34.382812 -28.472656 33.75 -30.171875 C 33.125 -31.867188 32.21875 -33.335938 31.03125 -34.578125 C 29.851562 -35.816406 28.457031 -36.8125 26.84375 -37.5625 C 25.238281 -38.3125 23.488281 -38.6875 21.59375 -38.6875 C 19.632812 -38.6875 17.847656 -38.320312 16.234375 -37.59375 C 14.617188 -36.875 13.234375 -35.878906 12.078125 -34.609375 C 10.929688 -33.347656 10.039062 -31.867188 9.40625 -30.171875 C 8.78125 -28.472656 8.46875 -26.675781 8.46875 -24.78125 L 8.46875 0 L 5.1875 0 L 5.1875 -25.296875 C 5.1875 -27.597656 5.585938 -29.738281 6.390625 -31.71875 C 7.191406 -33.707031 8.3125 -35.453125 9.75 -36.953125 C 11.195312 -38.453125 12.925781 -39.632812 14.9375 -40.5 C 16.945312 -41.363281 19.164062 -41.796875 21.59375 -41.796875 C 24.007812 -41.796875 26.222656 -41.363281 28.234375 -40.5 C 30.242188 -39.632812 31.96875 -38.4375 33.40625 -36.90625 C 34.851562 -35.382812 35.976562 -33.628906 36.78125 -31.640625 C 37.582031 -29.660156 37.984375 -27.546875 37.984375 -25.296875 Z M 37.984375 0 "/></g></g></g><g fill="#000000" fill-opacity="1"><g transform="translate(330.752387, 247.403372)"><g><path d="M 27.109375 -40.921875 C 28.546875 -40.921875 29.507812 -40.5625 30 -39.84375 C 30.488281 -39.125 30.734375 -38.390625 30.734375 -37.640625 C 30.734375 -36.660156 30.585938 -35.796875 30.296875 -35.046875 C 30.015625 -34.304688 29.238281 -33.1875 27.96875 -31.6875 L 8.28125 -7.859375 C 7.707031 -7.171875 7.25 -6.625 6.90625 -6.21875 C 6.5625 -5.8125 6.300781 -5.476562 6.125 -5.21875 C 5.957031 -4.957031 5.84375 -4.753906 5.78125 -4.609375 C 5.726562 -4.472656 5.703125 -4.316406 5.703125 -4.140625 C 5.703125 -3.859375 5.859375 -3.644531 6.171875 -3.5 C 6.492188 -3.351562 6.796875 -3.28125 7.078125 -3.28125 L 31.78125 -3.28125 L 31.78125 0 L 5.359375 0 C 3.054688 0 1.90625 -1.238281 1.90625 -3.71875 C 1.90625 -4 1.914062 -4.296875 1.9375 -4.609375 C 1.96875 -4.929688 2.066406 -5.289062 2.234375 -5.6875 C 2.410156 -6.09375 2.6875 -6.582031 3.0625 -7.15625 C 3.4375 -7.738281 3.96875 -8.429688 4.65625 -9.234375 L 24.34375 -33.0625 C 24.976562 -33.8125 25.566406 -34.503906 26.109375 -35.140625 C 26.660156 -35.773438 26.9375 -36.320312 26.9375 -36.78125 C 26.9375 -37.070312 26.773438 -37.285156 26.453125 -37.421875 C 26.140625 -37.566406 25.84375 -37.640625 25.5625 -37.640625 L 3.625 -37.640625 L 3.625 -40.921875 Z M 27.109375 -40.921875 "/></g></g></g></g></g></g></g></g></g></mask><clipPath id="7770fcc184"><path d="M 0.167969 13.316406 L 539 13.316406 L 539 446.15625 L 0.167969 446.15625 Z M 0.167969 13.316406 " clip-rule="nonzero"/></clipPath><clipPath id="5ae41415f8"><rect x="0" width="540" y="0" height="464"/></clipPath><clipPath id="0a23cc979d"><rect x="0" width="540" y="0" height="464"/></clipPath><clipPath id="48d14d5487"><rect x="0" width="545" y="0" height="474"/></clipPath><clipPath id="50340c1de3"><rect x="0" width="545" y="0" height="474"/></clipPath></defs><g clip-path="url(#d830258a05)"><path fill="#ffffff" d="M 0 0.140625 L 1024 0.140625 L 1024 575.859375 L 0 575.859375 Z M 0 0.140625 " fill-opacity="1" fill-rule="nonzero"/></g><g transform="matrix(1, 0, 0, 1, 267, 36)"><g clip-path="url(#50340c1de3)"><g mask="url(#75e043455f)"><g transform="matrix(1, 0, 0, 1, 64, 185)"><g clip-path="url(#92b2b15e60)"><g clip-path="url(#b267a8ea58)"><path fill="#2d0650" d="M 103.898438 52.660156 C 103.898438 81.167969 80.703125 104.359375 52.195312 104.359375 C 23.6875 104.359375 0.496094 81.167969 0.496094 52.660156 C 0.496094 40.089844 5.050781 27.980469 13.320312 18.558594 C 13.757812 18.058594 14.519531 18.011719 15.019531 18.449219 C 15.515625 18.886719 15.566406 19.644531 15.128906 20.144531 C 7.242188 29.125 2.898438 40.671875 2.898438 52.660156 C 2.898438 79.839844 25.015625 101.957031 52.195312 101.957031 C 79.378906 101.957031 101.492188 79.839844 101.492188 52.660156 C 101.492188 25.476562 79.378906 3.363281 52.195312 3.363281 C 41.554688 3.363281 31.429688 6.691406 22.914062 12.996094 C 22.378906 13.390625 21.625 13.277344 21.230469 12.746094 C 20.835938 12.214844 20.949219 11.460938 21.480469 11.066406 C 30.414062 4.453125 41.035156 0.957031 52.195312 0.957031 C 80.703125 0.957031 103.898438 24.152344 103.898438 52.660156 Z M 17.230469 17.429688 C 17.535156 17.429688 17.839844 17.316406 18.074219 17.085938 C 18.574219 16.597656 19.082031 16.121094 19.605469 15.667969 C 20.109375 15.230469 20.164062 14.472656 19.726562 13.972656 C 19.292969 13.46875 18.535156 13.414062 18.03125 13.851562 C 17.472656 14.335938 16.925781 14.84375 16.390625 15.367188 C 15.917969 15.828125 15.910156 16.59375 16.371094 17.066406 C 16.605469 17.308594 16.917969 17.429688 17.230469 17.429688 Z M 9.167969 52.660156 C 9.167969 28.933594 28.46875 9.628906 52.195312 9.628906 C 75.921875 9.628906 95.226562 28.933594 95.226562 52.660156 C 95.226562 76.382812 75.921875 95.6875 52.195312 95.6875 C 28.46875 95.6875 9.167969 76.382812 9.167969 52.660156 Z M 36.335938 90.058594 L 36.335938 61.132812 C 36.335938 61.132812 36.335938 61.125 36.335938 61.121094 L 36.335938 46.277344 L 12.28125 60.167969 C 14.8125 73.65625 24.019531 84.816406 36.339844 90.058594 Z M 38.992188 44.742188 L 38.742188 44.886719 L 38.742188 60.429688 L 47.777344 65.644531 L 52.195312 68.195312 L 65.652344 60.425781 L 65.652344 44.890625 L 53.449219 37.84375 L 52.195312 37.117188 Z M 52.195312 93.28125 C 61.367188 93.28125 69.835938 90.226562 76.640625 85.082031 L 51.605469 70.628906 C 51.605469 70.628906 51.597656 70.625 51.597656 70.625 L 42.046875 65.113281 L 38.742188 63.203125 L 38.742188 90.984375 C 42.957031 92.464844 47.480469 93.28125 52.195312 93.28125 Z M 92.820312 52.660156 C 92.820312 50.976562 92.707031 49.324219 92.507812 47.695312 L 54.605469 69.585938 L 78.640625 83.460938 C 87.3125 76.003906 92.824219 64.964844 92.824219 52.660156 Z M 68.058594 15.261719 L 68.058594 59.039062 L 92.113281 45.148438 C 89.582031 31.664062 80.375 20.503906 68.058594 15.261719 Z M 52.195312 12.035156 C 43.027344 12.035156 34.5625 15.089844 27.757812 20.230469 L 65.652344 42.109375 L 65.652344 14.335938 C 61.441406 12.851562 56.914062 12.035156 52.199219 12.035156 Z M 11.574219 52.660156 C 11.574219 54.339844 11.6875 55.992188 11.886719 57.621094 L 36.933594 43.15625 C 36.933594 43.15625 36.933594 43.152344 36.9375 43.152344 L 41.75 40.375 L 49.789062 35.730469 L 25.757812 21.855469 C 17.082031 29.308594 11.574219 40.351562 11.574219 52.660156 Z M 11.574219 52.660156 " fill-opacity="1" fill-rule="nonzero"/></g></g></g></g><g mask="url(#c998482b05)"><g transform="matrix(1, 0, 0, 1, 106, 229)"><g clip-path="url(#441c37db5c)"><g clip-path="url(#8698d49a7a)"><path fill="#000000" d="M 17.585938 9.332031 Z M 17.585938 9.332031 L 10.613281 3.890625 L 3.636719 9.335938 L 3.636719 17.113281 C 3.636719 17.3125 3.820312 17.472656 4.050781 17.472656 L 8.410156 17.472656 L 8.410156 14.0625 C 8.410156 13.863281 8.589844 13.699219 8.820312 13.699219 L 12.402344 13.699219 C 12.628906 13.699219 12.8125 13.863281 12.8125 14.0625 L 12.8125 17.472656 L 17.171875 17.472656 C 17.402344 17.472656 17.582031 17.3125 17.582031 17.113281 L 17.582031 9.332031 Z M 3.636719 9.335938 Z M 3.636719 9.335938 " fill-opacity="1" fill-rule="nonzero"/></g><g clip-path="url(#e6f06502a7)"><path fill="#000000" d="M 10.574219 0.914062 L 0.679688 8.632812 L 1.722656 9.667969 L 10.613281 2.730469 L 19.503906 9.667969 L 20.542969 8.632812 L 10.652344 0.914062 L 10.613281 0.953125 Z M 10.574219 0.914062 " fill-opacity="1" fill-rule="nonzero"/></g><path fill="#000000" d="M 3.636719 2.023438 L 6.144531 2.023438 L 6.125 3.335938 L 3.636719 5.3125 Z M 3.636719 2.023438 " fill-opacity="1" fill-rule="nonzero"/></g></g></g><g clip-path="url(#934cff7d5f)"><g transform="matrix(1, 0, 0, 1, 0, -0.000000000000063949)"><g clip-path="url(#48d14d5487)"><g clip-path="url(#4c685df3bf)"><g transform="matrix(1, 0, 0, 1, 5, 5)"><g clip-path="url(#0a23cc979d)"><g clip-path="url(#69e808e8ef)"><g mask="url(#dfc8829e22)"><g transform="matrix(1, 0, 0, 1, 0, -0.000000000000056843)"><g clip-path="url(#5ae41415f8)"><g clip-path="url(#7770fcc184)"><path fill="url(#21e5016323)" d="M 0.167969 13.316406 L 0.167969 446.15625 L 539 446.15625 L 539 13.316406 Z M 0.167969 13.316406 " fill-rule="nonzero"/></g></g></g></g></g></g></g></g></g></g></g></g></g></svg>